# Blender v2.79 (sub 0) OBJ File: 'bloc_vaisseaux_20.blend'
# www.blender.org
g bottom
v 0.500000 0.500024 0.499976
v 0.500000 0.499976 -0.500024
v 0.437500 0.499976 -0.500024
v 0.437500 0.500024 0.499976
v 0.400000 0.149976 -0.500007
v 0.400000 0.150024 0.499993
v 0.200000 -0.200024 -0.499990
v 0.200000 -0.199976 0.500010
v -0.150000 -0.400024 -0.499981
v -0.150000 -0.399976 0.500019
v -0.500000 -0.437524 -0.499979
v -0.500000 -0.437476 0.500021
vt 0.997979 0.000096
vt 0.997979 0.124123
vt 0.000096 0.123280
vt 0.000096 -0.000748
vt 0.998759 0.000081
vt 0.998759 0.233122
vt 0.000081 0.231646
vt 0.000081 -0.001395
vt 0.998759 0.500000
vt 0.000081 0.498524
vt 0.998759 0.766878
vt 0.000081 0.765401
vt 0.998759 0.999919
vt 0.000081 0.998442
vn 0.0000 1.0000 -0.0000
vn -0.9943 0.1065 -0.0000
vn -0.8682 0.4961 -0.0000
vn -0.4961 0.8682 -0.0000
vn -0.1065 0.9943 -0.0000
s off
f 2/1/1 3/2/1 4/3/1 1/4/1
f 3/5/2 5/6/2 6/7/2 4/8/2
f 5/6/3 7/9/3 8/10/3 6/7/3
f 7/9/4 9/11/4 10/12/4 8/10/4
f 9/11/5 11/13/5 12/14/5 10/12/5
g top
v -0.500000 -0.500024 -0.499976
v 0.500000 -0.500024 -0.499976
v 0.500000 -0.499976 0.500024
v -0.500000 -0.499976 0.500024
vt 0.000100 0.000100
vt 0.999900 0.000100
vt 0.999900 0.999900
vt 0.000100 0.999900
vn 0.0000 -1.0000 0.0000
s 1
f 13/15/6 14/16/6 15/17/6 16/18/6
g left
v 0.500000 0.500015 0.499985
v 0.500000 -0.499985 0.500015
v 0.500000 -0.500015 -0.499985
v 0.500000 0.499985 -0.500015
vt 0.999900 0.000100
vt 0.999900 0.999900
vt 0.000100 0.999900
vt 0.000100 0.000100
vn 1.0000 -0.0000 0.0000
s 1
f 17/19/7 18/20/7 19/21/7 20/22/7
g right
v -0.500000 -0.499985 0.500015
v -0.500000 -0.437515 -0.499987
v -0.500000 -0.500015 -0.499985
v -0.500000 -0.437485 0.500013
vt -0.000053 0.937545
vt -0.000053 1.000041
vt 0.999897 1.000041
vt 0.999897 0.937545
vn -1.0000 0.0000 0.0000
s off
f 22/23/8 23/24/8 21/25/8 24/26/8
g back
v -0.500000 -0.437524 -0.499979
v 0.500000 0.499976 -0.500024
v 0.500000 -0.500024 -0.499976
v -0.500000 -0.500024 -0.499976
v -0.150000 -0.400024 -0.499981
v 0.437500 0.499976 -0.500024
v 0.400000 0.149976 -0.500007
v 0.200000 -0.200024 -0.499989
vt 0.000155 0.000046
vt 0.062643 0.000053
vt 0.000044 0.999845
vt 0.100096 0.349984
vt 0.999851 0.937467
vt 0.999845 0.999954
vt 0.649927 0.899936
vt 0.300018 0.699937
vn 0.0000 -0.0000 -1.0000
vn -0.0000 -0.0001 -1.0000
s off
f 28/27/9 25/28/9 27/29/9
f 29/30/10 27/29/10 25/28/10
f 27/29/9 30/31/9 26/32/9
f 30/31/9 27/29/9 31/33/9
f 32/34/9 27/29/9 29/30/9
f 32/34/9 31/33/9 27/29/9
g front
v -0.500000 -0.499985 0.500015
v 0.500000 -0.499985 0.500015
v -0.500000 -0.437485 0.500013
v 0.500000 0.500015 0.499985
v -0.150000 -0.399985 0.500012
v 0.200000 -0.199985 0.500006
v 0.437500 0.500015 0.499985
v 0.400000 0.150015 0.499996
vt 0.699959 0.699958
vt 0.899918 0.350027
vt 0.999900 0.999897
vt 0.350029 0.899919
vt 0.937409 0.000101
vt 0.999896 0.000100
vt 0.000099 0.937412
vt 0.000100 0.999900
vn -0.0000 0.0000 1.0000
s off
f 38/35/11 37/36/11 34/37/11
f 40/38/11 38/35/11 34/37/11
f 37/36/11 35/39/11 34/37/11
f 34/37/11 35/39/11 33/40/11
f 40/38/11 34/37/11 39/41/11
f 34/37/11 36/42/11 39/41/11
