# Blender v2.79 (sub 0) OBJ File: 'fuselage_121.blend'
# www.blender.org
mtllib fuselage_121.mtl
o Plane
v -0.029929 -0.500000 -0.499981
v 0.500071 0.500000 -0.499951
v -0.029929 0.500000 -0.499981
v -0.499956 -0.500000 -0.030007
v 0.500071 -0.500000 -0.499951
v -0.499956 0.500000 -0.030007
v -0.499986 -0.500000 0.499992
v -0.499986 0.500000 0.499992
v 0.500014 -0.500000 0.500049
v 0.500014 0.500000 0.500049
vt 0.502927 -0.002388
vt 0.502927 0.997467
vt 0.000073 0.999927
vt 0.000073 0.000073
vt 0.504533 0.995006
vt 0.504533 -0.004849
vt 1.004927 -0.004849
vt 1.004927 0.995006
vt 0.682239 0.002544
vt 0.682476 0.996377
vt 0.315300 0.996722
vt 0.315063 0.002889
vt 0.999900 0.000100
vt 0.999900 0.999900
vt 0.000100 0.999900
vt 0.000100 0.000100
vt 0.000100 0.999900
vt 0.000100 0.000100
vt 0.999900 0.000100
vt 0.999900 0.999900
vt 0.529994 0.000100
vt 0.000100 0.999900
vt 0.999900 0.470006
vt 0.999900 0.999900
vt 0.530735 0.996512
vt 0.998960 0.526295
vt -0.000505 -0.000706
vt 0.997836 -0.002826
vt 0.001615 0.997635
vn 0.0001 0.0000 -1.0000
vn -1.0000 0.0000 -0.0001
vn -0.7071 0.0000 -0.7071
vn -0.0001 0.0000 1.0000
vn 1.0000 0.0000 0.0001
vn 0.0000 1.0000 0.0000
usemtl None
s off
f 1/1/1 3/2/1 2/3/1 5/4/1
f 6/5/2 4/6/2 7/7/2 8/8/2
f 4/9/3 6/10/3 3/11/3 1/12/3
f 8/13/4 7/14/4 9/15/4 10/16/4
f 5/17/5 2/18/5 10/19/5 9/20/5
f 2/18/6 3/21/6 10/22/6
f 6/23/6 10/22/6 3/21/6
f 8/24/6 10/22/6 6/23/6
f 1/25/6 4/26/6 9/27/6
f 4/26/6 7/28/6 9/27/6
f 1/25/6 9/27/6 5/29/6
