# Blender v2.79 (sub 0) OBJ File: 'fuselage_122.blend'
# www.blender.org
mtllib fuselage_122.mtl
o Plane
v -0.030000 -0.500000 0.500000
v 0.030000 -0.500000 0.500000
v -0.030000 0.500000 0.500000
v 0.500000 -0.500000 -0.030000
v 0.030000 0.500000 0.500000
v 0.500000 0.500000 -0.030000
v 0.500000 -0.500000 0.030000
v 0.500000 0.500000 0.030000
vt -0.002437 0.561085
vt 0.054164 0.504484
vt 0.940916 0.504486
vt 0.997515 0.561085
vt 0.246160 -0.002379
vt 0.812300 -0.002379
vt 0.812300 0.997458
vt 0.246160 0.997458
vt 0.746220 0.002544
vt 0.746457 0.996377
vt 0.248859 0.996722
vt 0.248622 0.002889
vt 0.051702 0.504486
vt 0.938454 0.504484
vt 0.995055 0.561085
vt -0.004898 0.561085
vt 0.502823 0.995389
vt 0.500362 0.000099
vt 0.433196 0.000099
vt 0.435657 0.995389
vt 0.438044 0.997515
vt 0.438044 -0.002436
vt 0.498041 -0.002436
vt 0.498041 0.997515
vn 0.0000 1.0000 -0.0000
vn -0.7071 0.0000 -0.7071
vn 0.7071 0.0000 0.7071
vn 0.0000 0.0000 -1.0000
vn -1.0000 0.0000 0.0000
usemtl None
s off
f 3/1/1 5/2/1 8/3/1 6/4/1
f 7/5/2 2/6/2 5/7/2 8/8/2
f 4/9/3 6/10/3 3/11/3 1/12/3
f 2/13/1 7/14/1 4/15/1 1/16/1
f 1/17/4 3/18/4 5/19/4 2/20/4
f 6/21/5 4/22/5 7/23/5 8/24/5
