# Blender v2.79 (sub 0) OBJ File: 'fuselage_120.blend'
# www.blender.org
mtllib fuselage_120.mtl
o Plane
v -0.030000 -0.500000 0.499913
v 0.500000 -0.500000 0.499946
v -0.030000 0.500000 0.499913
v 0.500033 -0.500000 -0.030054
v 0.500000 0.500000 0.499946
v 0.500033 0.500000 -0.030054
vt 0.995066 0.002799
vt 0.499695 -0.003165
vt 0.998946 0.495709
vt 0.994618 0.002531
vt 0.507773 -0.002000
vt 0.996688 0.497539
vt 0.682239 0.002544
vt 0.315063 0.002889
vt 0.315300 0.996722
vt 0.682476 0.996377
vt 0.999901 0.000099
vt 0.999901 1.000311
vt 0.497177 1.000311
vt 0.497177 0.000099
vt 0.502823 0.995389
vt 0.000098 0.997850
vt -0.002362 0.002559
vt 0.500362 0.000099
vn 0.0000 1.0000 0.0000
vn -0.7071 0.0000 -0.7072
vn -1.0000 0.0000 -0.0001
vn -0.0001 0.0000 1.0000
usemtl None
s off
f 2/1/1 4/2/1 1/3/1
f 5/4/1 6/5/1 3/6/1
f 4/7/2 1/8/2 3/9/2 6/10/2
f 2/11/3 5/12/3 6/13/3 4/14/3
f 1/15/4 2/16/4 5/17/4 3/18/4
