# Blender v2.79 (sub 0) OBJ File: 'bloc_vaisseaux_21.blend'
# www.blender.org
g bottom
v 0.500000 0.500024 0.499976
v 0.500000 0.499976 -0.500024
v 0.437500 0.499976 -0.500024
v 0.437500 0.500024 0.499976
v 0.400000 0.149976 -0.500007
v 0.400000 0.150024 0.499993
v 0.200000 -0.200024 -0.499990
v 0.200000 -0.199976 0.500010
v -0.150000 -0.400024 -0.499981
v -0.150000 -0.399976 0.500019
v -0.500000 -0.437524 -0.499979
v -0.500000 -0.437476 0.500021
vt 0.997979 0.000096
vt 0.997979 0.124123
vt 0.000096 0.123280
vt 0.000096 -0.000748
vt 0.998759 0.000081
vt 0.998759 0.233122
vt 0.000081 0.231646
vt 0.000081 -0.001395
vt 0.998759 0.500000
vt 0.000081 0.498524
vt 0.998759 0.766878
vt 0.000081 0.765401
vt 0.998759 0.999919
vt 0.000081 0.998442
vn 0.0000 1.0000 -0.0000
vn -0.9943 0.1065 -0.0000
vn -0.8682 0.4961 -0.0000
vn -0.4961 0.8682 -0.0000
vn -0.1065 0.9943 -0.0000
s off
f 2/1/1 3/2/1 4/3/1 1/4/1
f 3/5/2 5/6/2 6/7/2 4/8/2
f 5/6/3 7/9/3 8/10/3 6/7/3
f 7/9/4 9/11/4 10/12/4 8/10/4
f 9/11/5 11/13/5 12/14/5 10/12/5
g top
v -0.500000 -0.500024 -0.499976
v -0.150000 -0.460024 -0.499978
v -0.150000 -0.459976 0.500022
v -0.500000 -0.499976 0.500024
v 0.250000 -0.250024 -0.499988
v 0.250000 -0.249976 0.500012
vt 0.001081 0.566919
vt 0.001006 0.756202
vt 1.000827 0.756316
vt 1.000902 0.567033
vt 0.000910 0.998944
vt 1.000731 0.999059
vn 0.1135 -0.9935 0.0000
vn 0.4648 -0.8854 0.0000
s 1
f 13/15/6 14/16/6 15/17/6 16/18/6
f 15/17/7 14/16/7 17/19/7 18/20/7
g left
v 0.500000 0.500015 0.499985
v 0.460000 0.150015 0.499996
v 0.460000 0.149985 -0.500004
v 0.500000 0.499985 -0.500015
v 0.250000 -0.249985 0.500007
v 0.250000 -0.250015 -0.499993
vt 0.999694 0.000003
vt 0.999693 0.249389
vt -0.000127 0.249388
vt -0.000126 0.000002
vt 0.999693 0.562063
vt -0.000127 0.562062
vn 0.9935 -0.1135 0.0000
vn 0.8854 -0.4648 0.0000
s 1
f 19/21/8 20/22/8 21/23/8 22/24/8
f 21/23/9 20/22/9 23/25/9 24/26/9
g right
v -0.500000 -0.499985 0.500015
v -0.500000 -0.437515 -0.499987
v -0.500000 -0.500015 -0.499985
v -0.500000 -0.437485 0.500013
vt -0.000053 0.937545
vt -0.000053 1.000041
vt 0.999897 1.000041
vt 0.999897 0.937545
vn -1.0000 0.0000 0.0000
s off
f 26/27/10 27/28/10 25/29/10 28/30/10
g back
v -0.500000 -0.437524 -0.499979
v 0.500000 0.499976 -0.500024
v 0.250000 -0.250024 -0.499988
v -0.500000 -0.500024 -0.499976
v -0.150000 -0.400024 -0.499981
v 0.437500 0.499976 -0.500024
v 0.400000 0.149976 -0.500007
v 0.200000 -0.200024 -0.499989
v 0.460000 0.149976 -0.500007
v -0.150000 -0.460024 -0.499978
vt 0.980849 0.021816
vt 0.941776 0.362999
vt 0.883286 0.362986
vt 0.919921 0.021802
vt 0.688240 0.704132
vt 0.736970 0.752885
vt 0.346990 0.957510
vt 0.347003 0.899020
vt 0.005789 0.996425
vt 0.005803 0.935498
vn 0.0000 -0.0000 -1.0000
vn -0.0000 -0.0001 -1.0000
s off
f 30/31/11 37/32/11 35/33/11 34/34/11
f 36/35/11 35/33/11 37/32/11 31/36/11
f 31/36/11 38/37/11 33/38/11 36/35/11
f 32/39/12 29/40/12 33/38/12 38/37/12
g front
v -0.500000 -0.499985 0.500015
v 0.250000 -0.249985 0.500007
v -0.500000 -0.437485 0.500013
v 0.500000 0.500015 0.499985
v -0.150000 -0.399985 0.500012
v 0.200000 -0.199985 0.500006
v 0.437500 0.500015 0.499985
v 0.400000 0.150015 0.499996
v -0.150000 -0.459985 0.500014
v 0.460000 0.150015 0.499996
vt 0.005365 0.062084
vt 0.005322 0.003106
vt 0.335627 0.040614
vt 0.335668 0.097233
vt 0.911669 0.615824
vt 0.855050 0.615865
vt 0.666082 0.285724
vt 0.713230 0.238508
vt 0.890676 0.946117
vt 0.949654 0.946075
vn 0.0000 0.0000 1.0000
s off
f 41/41/13 39/42/13 47/43/13 43/44/13
f 48/45/13 46/46/13 44/47/13 40/48/13
f 43/44/13 47/43/13 40/48/13 44/47/13
f 45/49/13 46/46/13 48/45/13 42/50/13
