# Blender v2.79 (sub 0) OBJ File: 'bloc_vaisseaux_05.blend'
# www.blender.org
mtllib bloc_vaisseaux_05.mtl
o bottom
v -0.031200 -0.500006 -0.499994
v 0.031200 -0.500006 -0.499994
v -0.500000 -0.500000 0.031206
v -0.500000 -0.500000 -0.031194
vt 0.000096 0.000096
vt 0.121110 0.001068
vt 0.997807 0.875225
vt 0.997807 0.999252
vn -0.0000 1.0000 -0.0000
usemtl None
s off
f 2/1/1 1/2/1 4/3/1 3/4/1
o top
v 0.031200 0.500006 0.499994
v 0.500000 0.500000 0.031194
v 0.500000 0.500000 -0.031206
v -0.031200 0.500006 0.499994
vt 0.562470 0.001642
vt 0.999970 0.439142
vt 1.000000 0.561719
vt 0.437500 0.002344
vn -0.0000 1.0000 -0.0000
usemtl None
s 1
f 5/5/2 6/6/2 7/7/2 8/8/2
o left
v 0.500000 0.031194 -0.500000
v 0.500000 0.500000 -0.031206
v 0.500000 0.500000 0.031194
v 0.500000 -0.031206 -0.500000
v -0.031200 -0.500006 -0.499994
v 0.031200 -0.500006 -0.499994
vt 0.030273 0.515126
vt 0.030273 0.969728
vt 0.000018 0.999983
vt 0.000018 0.484871
vt 0.000017 0.030272
vt 0.030272 0.000017
vn 1.0000 0.0000 0.0000
vn -0.0000 -0.0000 -1.0000
usemtl None
s 1
f 9/9/3 10/10/3 11/11/3 12/12/3
f 9/9/4 12/12/4 14/13/4 13/14/4
o right
v -0.031200 0.500006 0.499994
v -0.500000 -0.031194 0.500000
v 0.031200 0.500006 0.499994
v -0.500000 0.031206 0.500000
v -0.500000 -0.499997 0.031206
v -0.500000 -0.500000 -0.031194
vt 0.000017 0.484873
vt 0.030272 0.515128
vt 0.030273 0.969728
vt 0.000018 0.999983
vt 0.000019 0.030274
vt 0.030273 0.000017
vn -0.0000 -0.0000 -1.0000
vn 1.0000 0.0000 0.0000
usemtl None
s off
f 16/15/5 18/16/5 15/17/5 17/18/5
f 18/16/6 16/15/6 19/19/6 20/20/6
o back
v -0.500000 -0.031194 0.500000
v 0.500000 -0.031206 -0.500000
v 0.500000 0.500000 0.031194
v 0.031200 0.500006 0.499994
v -0.500000 -0.499995 0.031206
v 0.031200 -0.500006 -0.499994
vt -0.000447 0.500230
vt 0.302564 0.997701
vt 0.696277 1.000866
vt 0.999367 0.500317
vt 0.690046 0.000630
vt 0.318320 0.000586
vn -0.5774 0.5773 -0.5774
vn -0.5773 0.5773 -0.5774
usemtl None
s 1
f 21/21/7 24/22/7 23/23/7 22/24/7
f 21/21/8 22/24/8 26/25/8 25/26/8
o front
v -0.031200 0.500006 0.499994
v 0.500000 0.500000 -0.031206
v -0.500000 0.031206 0.500000
v 0.500000 0.031194 -0.500000
v -0.500000 -0.500000 -0.031194
v -0.031200 -0.500006 -0.499994
vt 0.313849 1.000755
vt 0.000108 0.498114
vt 0.999921 0.498078
vt 0.683729 1.000735
vt 0.314857 0.002722
vt 0.691044 0.002705
vn -0.5774 0.5773 -0.5774
usemtl None
s off
f 28/27/9 30/28/9 29/29/9 27/30/9
f 29/29/9 30/28/9 32/31/9 31/32/9
